<svg width="164" height="74" viewBox="0 0 164 74" fill="none" xmlns="http://www.w3.org/2000/svg">
<g id="Group 18">
<rect id="Rectangle 28" width="164" height="74" rx="10" fill="#F2F9FE"/>
<path id="Vector" opacity="0.6" d="M131.324 43.4538C133.281 43.4538 135.115 42.9175 136.676 41.9972L136.975 41.8143C139.833 39.992 141.723 36.8289 141.723 33.2269C141.723 27.5771 137.066 23 131.33 23C125.588 23 120.937 27.5771 120.937 33.2269C120.931 38.8767 125.576 43.4538 131.324 43.4538ZM143.137 42.2775C137.694 42.2775 133.274 46.6901 133.274 52.1388C133.274 57.5813 137.688 62 143.137 62C148.587 62 153 57.5874 153 52.1388C152.994 46.6962 148.575 42.2775 143.137 42.2775ZM141.711 57.3863H139.419V48.9695H138.657V48.2077H141.717V52.6324L145.502 48.2077L149.324 48.2138L141.711 57.3863ZM132.061 56.8134C131.434 55.3324 131.117 53.7539 131.117 52.1388C131.117 50.5176 131.44 48.9451 132.061 47.4641C132.433 46.5682 132.915 45.7393 133.488 44.9653H127.429C120.016 44.9653 114 50.8833 114 58.1725V59.0136C114 61.9939 120.016 61.9939 127.429 61.9939H136.249C135.676 61.5917 135.134 61.1406 134.634 60.6409C133.524 59.5316 132.665 58.2518 132.061 56.8134Z" fill="url(#paint0_linear_50_339)"/>
</g>
<defs>
<linearGradient id="paint0_linear_50_339" x1="133.5" y1="23" x2="133.5" y2="62" gradientUnits="userSpaceOnUse">
<stop stop-color="#0500FF"/>
<stop offset="1" stop-color="#0078FF" stop-opacity="0"/>
</linearGradient>
</defs>
</svg>
