<svg width="164" height="74" viewBox="0 0 164 74" fill="none" xmlns="http://www.w3.org/2000/svg">
<g id="Group 19">
<rect id="Rectangle 27" width="164" height="74" rx="10" fill="#F2F9FE"/>
<g id="Group 14" opacity="0.6">
<path id="Union" fill-rule="evenodd" clip-rule="evenodd" d="M130.631 47.1868L118.611 38.3371L127.461 26.3175L139.481 35.1671L136.347 39.4236L150.417 49.8463C151.078 50.2425 151.21 51.1671 150.682 51.6954L149.361 53.5446C148.965 54.205 148.04 54.3371 147.512 53.8088L133.433 43.3805L130.631 47.1868ZM128.518 24.9967C127.725 24.3362 127.593 23.4116 128.121 22.6191C128.65 21.9587 129.706 21.8266 130.499 22.2229L142.519 31.0725C143.311 31.7329 143.443 32.6575 142.915 33.45C142.254 34.2425 141.33 34.3746 140.537 33.8463L128.518 24.9967ZM115.706 42.4317C114.913 41.7713 114.781 40.8467 115.309 40.0542C115.838 39.2617 116.894 39.1296 117.687 39.658L129.706 48.5076C130.499 49.168 130.631 50.0926 130.103 50.8851C129.442 51.6776 128.518 51.8097 127.725 51.2814L115.706 42.4317ZM142.915 58.3286H143.443C144.5 58.3286 145.424 59.1211 145.424 60.1778V63.4799C145.424 64.5365 144.5 65.329 143.443 65.329H117.026C115.97 65.329 115.045 64.5365 115.045 63.4799V60.1778C115.045 59.1211 115.97 58.3286 117.026 58.3286H117.555V56.8757C117.555 56.0832 118.215 55.4227 119.14 55.4227H141.33C142.254 55.4227 142.915 56.0832 142.915 56.8757V58.3286Z" fill="url(#paint0_linear_50_340)"/>
</g>
</g>
<defs>
<linearGradient id="paint0_linear_50_340" x1="130.208" y1="22" x2="130.208" y2="65.329" gradientUnits="userSpaceOnUse">
<stop stop-color="#0500FF"/>
<stop offset="1" stop-color="#0078FF" stop-opacity="0"/>
</linearGradient>
</defs>
</svg>
