<svg width="164" height="74" viewBox="0 0 164 74" fill="none" xmlns="http://www.w3.org/2000/svg">
<g id="Group 16">
<rect id="Rectangle 25" width="164" height="74" rx="10" fill="#F2F9FE"/>
<path id="Vector" opacity="0.6" d="M142.584 43.8866C142.584 37.321 137.175 32 130.5 32C123.825 32 118.416 37.321 118.416 43.8866C118.416 48.3059 123.83 53.5143 123.83 53.5143C124.203 53.8947 124.126 54.4254 123.677 54.7165C123.677 54.7165 121.639 55.7263 121.639 57.3559C121.639 59.103 123.085 60.526 124.871 60.526H136.134C137.915 60.526 139.366 59.1077 139.366 57.3559C139.366 55.731 137.327 54.7165 137.327 54.7165C136.874 54.4348 136.807 53.8994 137.175 53.5143C137.17 53.5143 142.584 48.3059 142.584 43.8866V43.8866ZM144.026 69.2425C144.566 69.2425 145 68.8152 145 68.2845V66.0725C145 64.3207 143.558 62.9024 141.777 62.9024H119.223C117.442 62.9024 116 64.3207 116 66.0725V68.2845C116 68.8152 116.434 69.2425 116.974 69.2425H144.026ZM142.417 74C142.957 74 143.391 73.5726 143.391 73.0419V72.4173C143.391 71.5438 142.67 70.8346 141.777 70.8346H119.223C118.335 70.8346 117.614 71.5438 117.614 72.4173V73.0419C117.614 73.5726 118.048 74 118.588 74H142.417Z" fill="url(#paint0_linear_50_337)"/>
</g>
<defs>
<linearGradient id="paint0_linear_50_337" x1="130.5" y1="32" x2="130" y2="74" gradientUnits="userSpaceOnUse">
<stop stop-color="#0500FF"/>
<stop offset="1" stop-color="#0078FF" stop-opacity="0"/>
</linearGradient>
</defs>
</svg>
