<svg width="164" height="74" viewBox="0 0 164 74" fill="none" xmlns="http://www.w3.org/2000/svg">
<g id="Group 17">
<rect id="Rectangle 26" width="164" height="74" rx="10" fill="#F2F9FE"/>
<path id="Vector" opacity="0.6" d="M139.239 44.1979C133.848 44.1979 129.479 48.5538 129.479 53.9277C129.479 59.3019 133.849 63.6583 139.239 63.6583C144.63 63.6583 149 59.3019 149 53.9277C149 48.5538 144.63 44.1979 139.239 44.1979V44.1979ZM143.698 56.9702C143.552 57.9127 143.027 59.9723 140.18 60.1775V61.9821H138.169V60.1919C136.968 60.0233 135.86 59.7138 134.721 59.334L135.325 56.9783C136.228 57.3296 137.417 57.7052 138.463 57.826C139.884 57.991 140.841 57.6992 140.93 56.6735C141.133 54.8758 134.807 54.5594 134.866 51.3146C134.78 48.9317 136.514 47.8936 138.243 47.7497V45.8739H140.253V47.6634C141.394 47.6781 142.299 47.9226 143.179 48.3069L142.621 50.5267C141.737 50.1946 140.833 49.8829 139.75 49.8829C139.049 49.8829 137.577 49.885 137.526 50.8479C137.526 52.5079 140.309 52.5925 141.234 52.9839C141.908 53.2689 142.377 53.5485 142.857 54.0158C143.694 54.8314 143.868 55.8823 143.698 56.9702V56.9702ZM129.019 32C122.38 32 117 34.6612 117 37.9438C117 41.2258 122.38 43.8873 129.019 43.8873C135.656 43.8873 141.036 41.2266 141.036 37.9438C141.036 34.6611 135.656 32 129.019 32ZM134.509 39.8022C134.329 40.3781 133.682 41.6354 130.177 41.7612V42.8633H127.701V41.7698C126.223 41.6667 124.858 41.4769 123.455 41.2443L124.2 39.8059C125.311 40.0204 126.773 40.2499 128.064 40.3236C129.811 40.4242 130.991 40.2461 131.1 39.6198C131.349 38.5212 123.561 38.3281 123.633 36.3467C123.527 34.8913 125.663 34.2563 127.79 34.1694V33.0244H130.264V34.1179C131.671 34.126 132.783 34.2757 133.867 34.5104L133.181 35.8662C132.092 35.6637 130.979 35.473 129.645 35.473C128.782 35.473 126.97 35.4744 126.907 36.0622C126.907 37.0761 130.335 37.1282 131.473 37.3666C132.303 37.5408 132.88 37.7113 133.471 37.9974C134.504 38.4959 134.717 39.138 134.509 39.8022V39.8022ZM132.807 45.4122C131.615 45.6083 130.344 45.7184 129.019 45.7184C123.299 45.7184 118.523 43.7406 117.308 41.0938C117.112 41.5184 117 41.9597 117 42.4132C117 45.6952 122.38 48.3567 129.019 48.3567C129.342 48.3567 129.658 48.345 129.974 48.3329C130.717 47.1836 131.679 46.189 132.807 45.4122V45.4122ZM140.706 43.7748C140.914 43.3376 141.035 42.8831 141.035 42.4138C141.035 41.9597 140.923 41.5192 140.728 41.0946C140.296 42.0364 139.406 42.8906 138.191 43.6037C138.361 43.5954 138.529 43.5773 138.702 43.5773C139.388 43.5773 140.057 43.6476 140.706 43.7748ZM129.019 49.6292C123.299 49.6292 118.523 47.6515 117.308 45.0047C117.112 45.4293 117 45.8702 117 46.3241C117 49.5125 122.083 52.1083 128.459 52.2535C128.612 51.3296 128.883 50.4471 129.263 49.6231C129.183 49.6246 129.101 49.6292 129.019 49.6292V49.6292ZM128.336 53.5254C122.923 53.3742 118.474 51.4556 117.308 48.9152C117.112 49.34 117 49.7813 117 50.235C117 53.4414 122.14 56.0487 128.569 56.166C128.408 55.4446 128.318 54.6971 128.318 53.9271C128.318 53.7927 128.33 53.6598 128.336 53.5254V53.5254ZM117.308 52.8263C117.112 53.2513 117 53.6919 117 54.1454C117 57.4277 122.38 60.0888 129.019 60.0888C129.466 60.0888 129.905 60.0752 130.339 60.0521C129.757 59.2629 129.292 58.3867 128.952 57.4496C123.261 57.4331 118.517 55.4623 117.308 52.8263V52.8263ZM131.383 61.2415C130.618 61.3177 129.83 61.3615 129.019 61.3615C123.299 61.3615 118.523 59.3838 117.308 56.7369C117.112 57.1617 117 57.6023 117 58.0565C117 61.3381 122.38 64 129.019 64C130.976 64 132.818 63.7633 134.45 63.3527C133.308 62.84 132.269 62.1246 131.383 61.2415V61.2415Z" fill="url(#paint0_linear_50_338)"/>
</g>
<defs>
<linearGradient id="paint0_linear_50_338" x1="133" y1="32" x2="133" y2="64" gradientUnits="userSpaceOnUse">
<stop stop-color="#0500FF"/>
<stop offset="1" stop-color="#0078FF" stop-opacity="0"/>
</linearGradient>
</defs>
</svg>
