<svg width="18" height="22" viewBox="0 0 18 22" fill="none" xmlns="http://www.w3.org/2000/svg">
<g id="Vector">
<path id="Vector_2" d="M8.65059 0C3.87207 0 0 3.88984 0 8.69883C0 11.1033 0.967383 13.2768 2.53652 14.851L8.65059 21.0031L14.7646 14.851C16.3896 13.2158 17.3012 11.0043 17.3012 8.69883C17.2936 3.89238 13.4215 0 8.65059 0ZM8.65059 12.5658C7.62734 12.5658 6.64473 12.1545 5.92871 11.4283C5.21016 10.7047 4.80391 9.72207 4.80391 8.69883C4.80391 7.67559 5.20254 6.69297 5.92871 5.96934C6.64473 5.2457 7.62734 4.83945 8.65059 4.83437C9.67383 4.83437 10.6564 5.2457 11.3725 5.97187C12.091 6.69551 12.4973 7.67812 12.4973 8.70137C12.5023 9.72461 12.0986 10.7072 11.3725 11.4309C10.6488 12.1545 9.66875 12.5607 8.65059 12.5658Z" fill="#5257FD"/>
</g>
</svg>
