<svg width="12" height="12" viewBox="0 0 12 12" fill="none" xmlns="http://www.w3.org/2000/svg">
<g id="Group 1">
<path id="Vector" d="M0 6C-1.17411e-08 6.78793 0.155195 7.56815 0.456723 8.2961C0.758251 9.02405 1.20021 9.68549 1.75736 10.2426C2.31451 10.7998 2.97595 11.2417 3.7039 11.5433C4.43185 11.8448 5.21207 12 6 12C6.78793 12 7.56815 11.8448 8.2961 11.5433C9.02405 11.2417 9.68549 10.7998 10.2426 10.2426C10.7998 9.68549 11.2417 9.02405 11.5433 8.2961C11.8448 7.56815 12 6.78793 12 6C12 4.4087 11.3679 2.88258 10.2426 1.75736C9.11742 0.632141 7.5913 0 6 0C4.4087 0 2.88258 0.632141 1.75736 1.75736C0.632141 2.88258 0 4.4087 0 6V6Z" fill="#5257FD"/>
<path id="Vector_2" d="M5.68001 2.32001C5.79934 2.32001 5.91438 2.36446 6.00271 2.44468C6.09104 2.52491 6.14632 2.63516 6.15777 2.75393L6.16001 2.80001V5.81729L8.59873 8.56097C8.67768 8.64976 8.72089 8.76468 8.72001 8.88349C8.71912 9.0023 8.6742 9.11656 8.59393 9.20417L8.55873 9.23873C8.46994 9.31767 8.35502 9.36088 8.23621 9.36C8.1174 9.35911 8.00314 9.31419 7.91553 9.23393L7.88129 9.19873L5.32129 6.31873C5.25471 6.2437 5.2133 6.1497 5.20289 6.04993L5.20001 6.00001V2.80001C5.20001 2.6727 5.25058 2.55061 5.3406 2.4606C5.43062 2.37058 5.55271 2.32001 5.68001 2.32001V2.32001Z" fill="white"/>
</g>
</svg>
