<svg xmlns="http://www.w3.org/2000/svg" width="350.01" height="376.32" viewBox="0 0 350.01 376.32">
  <g id="组_193" data-name="组 193" transform="translate(-202.99 -315.686)">
    <rect id="圆角矩形_18_副本_12" data-name="圆角矩形 18 副本 12" width="13.95" height="6.99" rx="3.495" transform="translate(202.99 589.7)" fill="#4485f1" opacity="0.8"/>
    <g id="圆角矩形_19_副本" data-name="圆角矩形 19 副本" transform="translate(254.95 451.02)" fill="#feecea" stroke="#4485f1" stroke-width="3" opacity="0.8">
      <ellipse cx="5.01" cy="5.02" rx="5.01" ry="5.02" stroke="none"/>
      <ellipse cx="5.01" cy="5.02" rx="3.51" ry="3.52" fill="none"/>
    </g>
    <rect id="圆角矩形_18_副本_6" data-name="圆角矩形 18 副本 6" width="198.04" height="6.99" rx="3.495" transform="translate(236.94 589.7)" opacity="0.2"/>
    <path id="形状_95_副本" data-name="形状 95 副本" d="M801.3,836.773a2.78,2.78,0,0,1,0-5.56H909.821a2.78,2.78,0,0,1,0,5.56Zm-19.8-18.854a9.606,9.606,0,0,1-9.564-9.622V710.4a9.605,9.605,0,0,1,9.564-9.623H929.615a9.6,9.6,0,0,1,9.563,9.623v46.193a43.946,43.946,0,0,0-5.526-9.562V710.4a4.055,4.055,0,0,0-4.037-4.063H781.5a4.055,4.055,0,0,0-4.038,4.054v97.895a4.058,4.058,0,0,0,4.038,4.065l95.369.008a43.4,43.4,0,0,0,17.39,5.559Zm55.562-24.577V748.4a2.763,2.763,0,1,1,5.526,0v44.946a2.763,2.763,0,1,1-5.526,0Zm-19.709,0v-39a2.763,2.763,0,1,1,5.526,0v39a2.763,2.763,0,1,1-5.526,0Zm-19.707,0V759.81a2.763,2.763,0,1,1,5.526,0v33.532a2.763,2.763,0,1,1-5.526,0Z" transform="translate(-476 -310)" opacity="0.2"/>
    <text id="暂无数据_" data-name="暂无数据 !" transform="translate(306.277 688.006)" fill="#999" font-size="31.963" font-family="SourceHanSansCN-Regular, Source Han Sans CN"><tspan x="0" y="0">暂无数据 !</tspan></text>
    <path id="圆角矩形_17" data-name="圆角矩形 17" d="M797.625,714.469H930.2a8.188,8.188,0,0,1,8.391,7.968V806.9a8.188,8.188,0,0,1-8.391,7.968H797.625a8.188,8.188,0,0,1-8.391-7.968V722.437A8.188,8.188,0,0,1,797.625,714.469Z" transform="translate(-476 -310)" fill="#4485f1" opacity="0.102"/>
    <rect id="圆角矩形_20" data-name="圆角矩形 20" width="27.32" height="5.48" rx="2.74" transform="translate(325.07 411.77)" fill="#fff"/>
    <rect id="圆角矩形_21" data-name="圆角矩形 21" width="10.02" height="5.48" rx="2.74" transform="translate(357.86 411.77)" fill="#fff"/>
    <path id="形状_95_副本-2" data-name="形状 95 副本" d="M934.765,816.8l-10.938-11a40.2,40.2,0,0,1-25.2,8.852,40.731,40.731,0,1,1,29.285-12.6l10.757,10.825a2.791,2.791,0,0,1,0,3.931,2.751,2.751,0,0,1-3.908,0ZM863.6,773.844A35.03,35.03,0,1,0,898.63,738.6,35.179,35.179,0,0,0,863.6,773.844Z" transform="translate(-476 -310)" fill="#4485f1" opacity="0.8"/>
    <rect id="圆角矩形_21_副本" data-name="圆角矩形 21 副本" width="10.02" height="5.48" rx="2.74" transform="translate(443.47 509.43)" fill="#fff"/>
    <g id="圆角矩形_19_副本_2" data-name="圆角矩形 19 副本 2" transform="translate(452.58 355.19)" fill="#4485f1" stroke="#4485f1" stroke-width="3" opacity="0.8">
      <ellipse cx="4.55" cy="4.56" rx="4.55" ry="4.56" stroke="none"/>
      <ellipse cx="4.55" cy="4.56" rx="3.05" ry="3.06" fill="none"/>
    </g>
    <rect id="圆角矩形_18_副本_9" data-name="圆角矩形 18 副本 9" width="48.01" height="6.99" rx="3.495" transform="translate(447.98 589.7)" opacity="0.2"/>
    <g id="圆角矩形_19" data-name="圆角矩形 19" transform="translate(506.31 493.91)" fill="#feecea" stroke="#626262" stroke-width="3" opacity="0.302">
      <ellipse cx="6.38" cy="6.39" rx="6.38" ry="6.39" stroke="none"/>
      <ellipse cx="6.38" cy="6.39" rx="4.88" ry="4.89" fill="none"/>
    </g>
    <rect id="圆角矩形_18_副本_11" data-name="圆角矩形 18 副本 11" width="11" height="6.99" rx="3.495" transform="translate(509.99 589.7)" fill="#4485f1" opacity="0.8"/>
    <text id="_" data-name="+" transform="translate(529.079 347.686)" fill="#4485f1" font-size="28.715" font-family="ComicSansMS, Comic Sans MS" opacity="0.8"><tspan x="-6.898" y="0">+</tspan></text>
    <rect id="圆角矩形_18_副本_10" data-name="圆角矩形 18 副本 10" width="18" height="6.99" rx="3.495" transform="translate(535 589.7)" opacity="0.2"/>
  </g>
</svg>
